<mxfile host="app.diagrams.net" agent="Mozilla/5.0 (Macintosh; Intel Mac OS X 10_15_7) AppleWebKit/537.36 (KHTML, like Gecko) Chrome/138.0.0.0 Safari/537.36" version="28.0.7">
  <diagram name="Pagina-1" id="CYXXHO_yMfJTnz85VIeH">
    <mxGraphModel dx="1455" dy="800" grid="1" gridSize="10" guides="1" tooltips="1" connect="1" arrows="1" fold="1" page="1" pageScale="1" pageWidth="827" pageHeight="1169" math="0" shadow="0">
      <root>
        <mxCell id="0" />
        <mxCell id="1" parent="0" />
        <mxCell id="3" value="Backend" style="shape=umlLifeline;perimeter=lifelinePerimeter;whiteSpace=wrap;container=1;dropTarget=0;collapsible=0;recursiveResize=0;outlineConnect=0;portConstraint=eastwest;newEdgeStyle={&quot;edgeStyle&quot;:&quot;elbowEdgeStyle&quot;,&quot;elbow&quot;:&quot;vertical&quot;,&quot;curved&quot;:0,&quot;rounded&quot;:0};size=65;" parent="1" vertex="1">
          <mxGeometry x="262" y="150" width="150" height="460" as="geometry" />
        </mxCell>
        <mxCell id="4" value="Email Server" style="shape=umlLifeline;perimeter=lifelinePerimeter;whiteSpace=wrap;container=1;dropTarget=0;collapsible=0;recursiveResize=0;outlineConnect=0;portConstraint=eastwest;newEdgeStyle={&quot;edgeStyle&quot;:&quot;elbowEdgeStyle&quot;,&quot;elbow&quot;:&quot;vertical&quot;,&quot;curved&quot;:0,&quot;rounded&quot;:0};size=65;" parent="1" vertex="1">
          <mxGeometry x="476" y="150" width="150" height="460" as="geometry" />
        </mxCell>
        <mxCell id="6" value="Input user data (email, PAN, expiry date, cardholder name)&#xa;POST /api/accounts" style="verticalAlign=bottom;edgeStyle=elbowEdgeStyle;elbow=vertical;curved=0;rounded=0;endArrow=block;" parent="1" edge="1">
          <mxGeometry relative="1" as="geometry">
            <Array as="points">
              <mxPoint x="98.68" y="290" />
            </Array>
            <mxPoint x="28.003529411764646" y="290" as="sourcePoint" />
            <mxPoint x="336.17999999999995" y="290" as="targetPoint" />
          </mxGeometry>
        </mxCell>
        <mxCell id="8" value="Generate random 6-digit PIN" style="curved=1;endArrow=block;" parent="1" source="3" target="3" edge="1">
          <mxGeometry relative="1" as="geometry">
            <Array as="points">
              <mxPoint x="388" y="349" />
              <mxPoint x="388" y="379" />
            </Array>
          </mxGeometry>
        </mxCell>
        <mxCell id="9" value="Save PIN with user data" style="verticalAlign=bottom;edgeStyle=elbowEdgeStyle;elbow=vertical;curved=0;rounded=0;endArrow=block;" parent="1" source="3" target="q0lTlipxK7HV1FR8XMp6-16" edge="1">
          <mxGeometry relative="1" as="geometry">
            <Array as="points">
              <mxPoint x="553" y="427" />
            </Array>
            <mxPoint x="750.5" y="427" as="targetPoint" />
          </mxGeometry>
        </mxCell>
        <mxCell id="10" value="Send email with PIN" style="verticalAlign=bottom;edgeStyle=elbowEdgeStyle;elbow=vertical;curved=0;rounded=0;endArrow=block;" parent="1" source="3" target="4" edge="1">
          <mxGeometry relative="1" as="geometry">
            <Array as="points">
              <mxPoint x="453" y="475" />
            </Array>
          </mxGeometry>
        </mxCell>
        <mxCell id="11" value="Deliver email with PIN" style="verticalAlign=bottom;edgeStyle=elbowEdgeStyle;elbow=vertical;curved=0;rounded=0;endArrow=block;" parent="1" source="4" target="q0lTlipxK7HV1FR8XMp6-14" edge="1">
          <mxGeometry relative="1" as="geometry">
            <Array as="points">
              <mxPoint x="209" y="523" />
            </Array>
            <mxPoint x="-156.67647058823536" y="523" as="targetPoint" />
          </mxGeometry>
        </mxCell>
        <mxCell id="12" value="Send confirmation response" style="verticalAlign=bottom;edgeStyle=elbowEdgeStyle;elbow=vertical;curved=0;rounded=0;endArrow=block;" parent="1" source="3" target="q0lTlipxK7HV1FR8XMp6-14" edge="1">
          <mxGeometry relative="1" as="geometry">
            <Array as="points">
              <mxPoint x="102" y="571" />
            </Array>
            <mxPoint x="-156.67647058823536" y="571" as="targetPoint" />
          </mxGeometry>
        </mxCell>
        <mxCell id="q0lTlipxK7HV1FR8XMp6-14" value="&lt;div&gt;&lt;br&gt;&lt;/div&gt;&lt;div&gt;&lt;br&gt;&lt;/div&gt;&lt;div&gt;&lt;br&gt;&lt;/div&gt;&lt;div&gt;&lt;br&gt;&lt;/div&gt;&lt;div&gt;&lt;br&gt;&lt;/div&gt;Bank Employee" style="shape=umlLifeline;perimeter=lifelinePerimeter;whiteSpace=wrap;html=1;container=1;dropTarget=0;collapsible=0;recursiveResize=0;outlineConnect=0;portConstraint=eastwest;newEdgeStyle={&quot;curved&quot;:0,&quot;rounded&quot;:0};participant=umlActor;" vertex="1" parent="1">
          <mxGeometry x="19" y="160" width="20" height="440" as="geometry" />
        </mxCell>
        <mxCell id="q0lTlipxK7HV1FR8XMp6-15" value="" style="shape=cylinder;whiteSpace=wrap;html=1;boundedLbl=1;backgroundOutline=1;" vertex="1" parent="1">
          <mxGeometry x="729" y="150" width="60" height="80" as="geometry" />
        </mxCell>
        <mxCell id="q0lTlipxK7HV1FR8XMp6-16" value="DB" style="shape=umlLifeline;perimeter=lifelinePerimeter;whiteSpace=wrap;html=1;container=1;dropTarget=0;collapsible=0;recursiveResize=0;outlineConnect=0;portConstraint=eastwest;newEdgeStyle={&quot;curved&quot;:0,&quot;rounded&quot;:0};strokeColor=default;fillColor=none;strokeWidth=1;perimeterSpacing=1;size=80;" vertex="1" parent="1">
          <mxGeometry x="709" y="150" width="100" height="450" as="geometry" />
        </mxCell>
      </root>
    </mxGraphModel>
  </diagram>
</mxfile>
